<?xml version="1.0" standalone="no"?>
<!DOCTYPE svg PUBLIC "-//W3C//DTD SVG 20010904//EN"
 "http://www.w3.org/TR/2001/REC-SVG-20010904/DTD/svg10.dtd">
<svg version="1.0" xmlns="http://www.w3.org/2000/svg"
 width="705.000000pt" height="615.000000pt" viewBox="0 0 705.000000 615.000000"
 preserveAspectRatio="xMidYMid meet">
<metadata>
Created by potrace 1.13, written by Peter Selinger 2001-2015
</metadata>
<g transform="translate(0.000000,615.000000) scale(0.100000,-0.100000)"
 stroke="none">
<path fill="#ff0000"  d="M4075 5920 c-445 -31 -987 -121 -1547 -256 -170 -41 -190 -49 -213
-76 -14 -16 -25 -37 -26 -46 0 -9 0 -242 1 -516 1 -561 -2 -534 77 -589 25
-18 181 -130 347 -249 233 -169 308 -217 332 -218 20 0 67 22 140 66 155 94
511 269 699 343 691 275 1466 433 1920 392 288 -27 554 -111 790 -252 55 -33
110 -67 123 -76 l23 -16 -20 51 c-104 264 -314 558 -583 818 -132 128 -337
301 -415 351 -197 126 -436 207 -763 259 -122 19 -682 28 -885 14z m685 -190
c479 -44 840 -191 1142 -467 75 -69 240 -244 234 -250 -1 -2 -70 19 -152 46
-265 88 -488 137 -759 167 -186 21 -603 15 -789 -11 -446 -61 -985 -205 -1660
-442 -147 -52 -270 -93 -271 -91 -5 4 -27 759 -23 763 5 6 312 72 557 120 444
87 814 143 1096 164 162 12 493 12 625 1z m650 -699 c63 -11 140 -28 170 -37
l55 -18 -175 -13 c-546 -40 -1105 -170 -1631 -378 -174 -69 -488 -222 -647
-314 -67 -39 -126 -71 -133 -71 -13 0 -399 280 -399 289 0 10 354 149 535 211
510 174 1117 313 1533 350 173 15 561 5 692 -19z"/>
<path fill="#ff0000" d="M1910 5396 c-239 -83 -478 -245 -667 -452 -106 -116 -263 -328 -346
-466 -142 -235 -401 -799 -422 -918 -8 -49 22 -97 67 -105 18 -3 537 -5 1153
-3 870 2 1125 6 1142 15 12 7 26 28 33 47 14 43 10 241 -5 282 -9 22 -45 53
-137 115 -68 46 -233 158 -366 249 l-241 165 -1 518 c0 558 -1 567 -52 581
-39 10 -60 6 -158 -28z m40 -669 l0 -492 375 -260 375 -259 0 -43 0 -43 -508
0 c-280 0 -732 -3 -1005 -7 -411 -5 -497 -4 -497 7 0 52 220 537 325 716 236
404 539 706 850 849 39 18 73 31 78 28 4 -2 7 -226 7 -496z"/>
<path fill="#7b7b7b" d="M1426 4744 c-90 -28 -173 -98 -218 -184 -19 -37 -23 -60 -23 -135 0
-82 3 -95 31 -145 38 -67 128 -143 198 -167 31 -11 80 -18 126 -18 46 0 95 7
126 18 70 24 160 100 198 167 28 50 31 63 31 145 0 75 -4 98 -23 135 -28 53
-83 113 -133 145 -82 53 -214 69 -313 39z m209 -153 c46 -20 102 -79 111 -117
10 -40 -2 -114 -23 -143 -11 -14 -42 -39 -68 -56 -41 -25 -58 -30 -115 -30
-57 0 -74 5 -115 30 -62 39 -86 72 -92 128 -7 61 1 90 40 133 42 49 99 74 167
74 32 0 72 -8 95 -19z"/>
<path fill="#007b00" d="M4886 3769 c-131 -13 -371 -65 -506 -110 -89 -29 -294 -133 -421
-212 -441 -279 -890 -767 -1284 -1398 -77 -123 -142 -215 -180 -254 -215 -220
-373 -254 -457 -99 -90 167 -75 350 44 536 58 90 170 210 283 305 183 151 249
193 407 257 l146 59 6 51 c3 28 6 142 6 254 l0 202 -1265 0 c-696 0 -1265 -3
-1265 -7 0 -14 -60 -508 -65 -539 -5 -30 -2 -33 62 -70 81 -47 172 -134 202
-191 40 -79 45 -130 26 -282 -22 -173 -16 -632 9 -836 37 -294 79 -434 169
-561 197 -279 477 -460 829 -535 134 -29 393 -37 516 -15 132 23 324 88 455
153 125 63 385 234 527 348 255 204 505 473 716 770 l67 95 456 0 456 -1 -91
-87 c-109 -105 -238 -198 -384 -278 l-108 -59 -37 -140 c-21 -77 -68 -242
-105 -367 -37 -126 -64 -230 -62 -233 3 -3 574 -5 1269 -5 l1263 0 10 22 c5
13 62 202 126 421 63 220 118 405 120 412 4 10 -10 15 -53 20 -271 32 -441
177 -508 435 -24 93 -31 328 -14 454 19 135 16 358 -5 471 -50 265 -154 470
-341 673 -165 178 -352 286 -568 327 -102 19 -332 27 -451 14z m-123 -1014
c76 -12 157 -124 157 -215 l0 -30 -265 0 c-146 0 -265 4 -265 8 0 17 78 129
114 165 42 42 86 68 136 78 35 7 50 6 123 -6z"/>
</g>
</svg>
